<svg xmlns="http://www.w3.org/2000/svg" viewBox="0 0 900 700" fill="none">
  <defs>
    <radialGradient id="glowA"><stop stop-color="#2866C7" stop-opacity=".9"/><stop offset="1" stop-color="#2866C7" stop-opacity="0"/></radialGradient>
    <radialGradient id="glowB"><stop stop-color="#0A6C77" stop-opacity=".65"/><stop offset="1" stop-color="#0A6C77" stop-opacity="0"/></radialGradient>
    <filter id="blur"><feGaussianBlur stdDeviation="22"/></filter>
  </defs>
  <circle cx="640" cy="220" r="190" fill="url(#glowA)" filter="url(#blur)" opacity=".55"/>
  <circle cx="310" cy="480" r="160" fill="url(#glowB)" filter="url(#blur)" opacity=".45"/>
  <path d="M64 422c119-190 305-286 516-247 109 20 196 70 254 147" stroke="#F2C14E" stroke-opacity=".5" stroke-width="2" stroke-linecap="round"/>
  <path d="M122 510c133-166 302-222 480-174 82 22 151 62 207 117" stroke="#4C91E7" stroke-opacity=".35" stroke-width="1.5" stroke-linecap="round"/>
  <path d="M205 566c118-91 244-120 367-87 62 17 118 46 168 88" stroke="#2FA7B5" stroke-opacity=".32" stroke-width="1.5" stroke-linecap="round"/>
  <g fill="#F4EBD8" opacity=".8">
    <circle cx="150" cy="140" r="2.2"/><circle cx="228" cy="208" r="1.5"/><circle cx="340" cy="115" r="2"/><circle cx="485" cy="92" r="1.4"/><circle cx="730" cy="113" r="1.8"/><circle cx="803" cy="263" r="2.4"/><circle cx="650" cy="525" r="1.6"/><circle cx="388" cy="620" r="1.8"/><circle cx="118" cy="585" r="1.3"/>
  </g>
</svg>
